<?xml version="1.0" encoding="UTF-8" standalone="no"?>
<svg
   clip-rule="evenodd"
   fill-rule="evenodd"
   stroke-linejoin="round"
   stroke-miterlimit="2"
   viewBox="0 0 48 48"
   version="1.1"
   id="svg6"
   sodipodi:docname="icon_backup.svg"
   inkscape:version="1.4-dev (1:1.2.0-alpha1+devel+202311180135+bf8274be86)"
   inkscape:export-filename="icons/16x16.png"
   inkscape:export-xdpi="32"
   inkscape:export-ydpi="32"
   xmlns:inkscape="http://www.inkscape.org/namespaces/inkscape"
   xmlns:sodipodi="http://sodipodi.sourceforge.net/DTD/sodipodi-0.dtd"
   xmlns="http://www.w3.org/2000/svg"
   xmlns:svg="http://www.w3.org/2000/svg">
  <defs
     id="defs6" />
  <sodipodi:namedview
     id="namedview6"
     pagecolor="#ffffff"
     bordercolor="#000000"
     borderopacity="0.25"
     inkscape:showpageshadow="2"
     inkscape:pageopacity="0.0"
     inkscape:pagecheckerboard="0"
     inkscape:deskcolor="#d1d1d1"
     inkscape:zoom="11.13784"
     inkscape:cx="18.540399"
     inkscape:cy="24.331468"
     inkscape:window-width="1920"
     inkscape:window-height="1008"
     inkscape:window-x="0"
     inkscape:window-y="0"
     inkscape:window-maximized="1"
     inkscape:current-layer="g6" />
  <linearGradient
     id="a"
     x2="1"
     gradientTransform="matrix(0 -40 40 0 24 43.9999)"
     gradientUnits="userSpaceOnUse">
    <stop
       stop-color="#cecece"
       offset="0"
       id="stop1" />
    <stop
       stop-color="#f8f8f8"
       offset="1"
       id="stop2" />
  </linearGradient>
  <linearGradient
     id="b"
     x2="1"
     gradientTransform="matrix(.47095 -31.9995 31.9995 .47095 23.5293 39.9995)"
     gradientUnits="userSpaceOnUse">
    <stop
       stop-color="#2669ee"
       offset="0"
       id="stop3"
       style="stop-color:#9e26ee;stop-opacity:1;" />
    <stop
       stop-color="#00d3ff"
       offset="1"
       id="stop4"
       style="stop-color:#4c00ae;stop-opacity:1;" />
  </linearGradient>
  <g
     transform="matrix(1.1382 0 0 1.1382 -3.31669 -3.31668)"
     fill-rule="nonzero"
     id="g6">
    <path
       d="m23.846 4-.002.004c-11.007.084-19.844 8.968-19.844 19.996 0 11.08 8.92 20 20 20 10.68 0 19.351-8.289 19.963-18.811l.037-.035v-17.154c0-2.216-1.784-4-4-4z"
       fill="url(#a)"
       id="path4" />
    <path
       d="m40 8c-13.268.458-21.387-.574-27.451 5.49-6.065 6.065-6.065 15.897 0 21.961 6.064 6.065 15.896 6.065 21.961 0 6.064-6.064 5.032-14.183 5.49-27.451z"
       fill="url(#b)"
       id="path5" />
    <path
       d="m24 13c-2.815 0-5.629 1.075-7.777 3.223-4.296 4.295-4.296 11.26 0 15.556 4.295 4.296 11.259 4.296 15.554 0 4.296-4.296 4.296-11.261 0-15.556-2.148-2.148-4.962-3.223-7.777-3.223zm.088 5c1.56.023 3.051.654 4.154 1.758 2.327 2.327 2.327 6.157 0 8.484s-6.157 2.327-8.484 0-2.327-6.157 0-8.484c1.146-1.147 2.709-1.781 4.33-1.758z"
       fill="#fff"
       id="path6" />
  </g>
</svg>
